<mxfile host="app.diagrams.net" modified="2024-07-17T00:16:06.713Z" agent="Mozilla/5.0 (Windows NT 10.0; Win64; x64) AppleWebKit/537.36 (KHTML, like Gecko) Chrome/126.0.0.0 Safari/537.36" etag="PwLq9uUvgCwFUOB_c_oP" version="24.7.0" type="device">
  <diagram name="Page-1" id="wbC2kOOXgEahKbnWCCng">
    <mxGraphModel dx="794" dy="1546" grid="1" gridSize="10" guides="1" tooltips="1" connect="1" arrows="1" fold="1" page="1" pageScale="1" pageWidth="850" pageHeight="1100" math="0" shadow="0">
      <root>
        <mxCell id="0" />
        <mxCell id="1" parent="0" />
        <mxCell id="1VJ0o5hp0Nk0mBq3kq6a-1" value="" style="verticalLabelPosition=bottom;verticalAlign=top;html=1;shadow=0;dashed=0;strokeWidth=1;shape=mxgraph.android.tab2;strokeColor=#c0c0c0;" vertex="1" parent="1">
          <mxGeometry x="170" y="-110" width="472" height="686" as="geometry" />
        </mxCell>
      </root>
    </mxGraphModel>
  </diagram>
</mxfile>
